<svg width="479" height="446" viewBox="0 0 479 446" fill="none" xmlns="http://www.w3.org/2000/svg">
<path fill-rule="evenodd" clip-rule="evenodd" d="M80.7578 445.909C125.358 445.909 161.516 346.089 161.516 222.954C161.516 99.8196 125.358 0 80.7578 0C36.1573 0 0 99.8196 0 222.954C0 346.089 36.1573 445.909 80.7578 445.909Z" fill="#E63533"/>
<path fill-rule="evenodd" clip-rule="evenodd" d="M239.379 445.909C283.98 445.909 320.137 346.089 320.137 222.954C320.137 99.8196 283.98 0 239.379 0C194.778 0 158.621 99.8196 158.621 222.954C158.621 346.089 194.778 445.909 239.379 445.909Z" fill="#E63533"/>
<path fill-rule="evenodd" clip-rule="evenodd" d="M398.004 445.909C442.605 445.909 478.762 346.089 478.762 222.954C478.762 99.8196 442.605 0 398.004 0C353.404 0 317.247 99.8196 317.247 222.954C317.247 346.089 353.404 445.909 398.004 445.909Z" fill="#E63533"/>
</svg>
