<svg width="160" height="66" viewBox="0 0 160 66" fill="none" xmlns="http://www.w3.org/2000/svg">
<g clip-path="url(#clip0_302_983)">
<path d="M32.4832 49.2217L46.416 41.0214L60.3488 32.8262V49.2217V65.6171L46.416 57.4169L32.4832 49.2217Z" fill="#171717"/>
<path d="M32.5182 32.8364H0V65.6475H32.5182V32.8364Z" fill="#171717"/>
<path d="M32.5181 16.4207C32.5181 25.4873 25.2497 32.8413 16.289 32.8413C7.32829 32.8413 0.0598755 25.4873 0.0598755 16.4207C0.0598755 7.35404 7.3233 0 16.289 0C25.2547 0 32.5181 7.349 32.5181 16.4207Z" fill="#171717"/>
<path d="M65.0364 16.4259C53.4948 19.0552 51.3831 21.1859 48.7773 32.8264C46.1714 21.1859 44.0548 19.0552 32.5182 16.4259C44.0598 13.7966 46.1714 11.6659 48.7773 0.0253906C51.3831 11.6659 53.4997 13.7966 65.0364 16.4259Z" fill="#171717"/>
<path d="M71.2664 6.28613H80.6714V8.23546H73.3681V17.8562H80.2122V19.8004H73.3681V32.8413H71.2664V6.28613Z" fill="#171717"/>
<path d="M85.4788 6.28613V32.8362H83.3771V6.28613H85.4788Z" fill="#171717"/>
<path d="M89.9566 6.28613H92.0583V30.9171H99.5164L99.1919 32.8362H89.9517V6.28613H89.9566Z" fill="#171717"/>
<path d="M115.251 21.0295C115.251 15.9421 115.346 10.9605 115.426 8.24049H115.381C114.607 12.6277 112.161 24.7266 110.399 32.8362H108.267C106.93 25.9657 104.374 12.935 103.62 8.22035H103.535C103.635 11.2929 103.775 17.3021 103.775 21.8404V32.8362H101.753V6.28613H104.863C106.755 14.8541 108.951 25.9003 109.396 29.1189H109.436C109.86 26.2025 112.371 14.3907 114.238 6.28613H117.338V32.8362H115.246V21.0244L115.251 21.0295Z" fill="#171717"/>
<path d="M84.4055 52.6218C84.4055 47.212 84.4305 42.3916 84.5253 39.8428H84.4854C83.8713 43.0162 80.7713 56.5406 78.6497 65.6475H77.6063C75.8441 57.5127 72.8589 44.0639 72.0502 39.8983H72.0003C72.1051 42.8147 72.155 49.1311 72.155 53.6644V65.6475H71.2714V39.0269H72.6243C75.0554 49.6247 77.8609 62.313 78.1455 64.3731H78.1854C78.415 62.6454 81.5051 49.257 83.9262 39.0269H85.329V65.6475H84.4055V52.6218Z" fill="#171717"/>
<path d="M98.6128 51.7755H91.3095V64.8164H99.4216L99.2418 65.6475H90.3959V39.0269H99.0821V39.858H91.3095V50.9444H98.6128V51.7755Z" fill="#171717"/>
<path d="M115.676 52.6218C115.676 47.212 115.701 42.3916 115.795 39.8428H115.756C115.141 43.0162 112.041 56.5406 109.92 65.6475H108.876C107.114 57.5127 104.129 44.0639 103.32 39.8983H103.27C103.375 42.8147 103.425 49.1311 103.425 53.6644V65.6475H102.542V39.0269H103.894C106.326 49.6247 109.131 62.313 109.416 64.3731H109.456C109.685 62.6454 112.775 49.257 115.196 39.0269H116.599V65.6475H115.676V52.6218Z" fill="#171717"/>
<path d="M131.98 48.6021V55.7446C131.98 62.2927 130.567 66 126.404 66C122.51 66 120.872 62.8418 120.872 55.7899V48.6374C120.872 41.4344 122.994 38.6792 126.488 38.6792C129.983 38.6792 131.98 41.4647 131.98 48.6021ZM121.796 48.6978V55.6741C121.796 62.3078 123.234 65.1537 126.419 65.1537C130.038 65.1537 131.046 61.5019 131.046 55.7899V48.7129C131.046 42.4973 129.718 39.5204 126.424 39.5204C123.463 39.5204 121.796 42.0389 121.796 48.6928V48.6978Z" fill="#171717"/>
<path d="M137.236 52.2541V65.6475H136.323V39.0269H140.606C144.27 39.0269 145.937 41.0517 145.937 45.1216V45.711C145.937 49.5592 144.605 51.3021 142.548 51.836C144.949 52.4958 145.718 54.3897 145.718 57.8401V58.4949C145.718 60.691 145.793 64.2724 146.007 65.6475H145.069C144.869 64.4336 144.814 60.4745 144.799 58.4597V57.8451C144.769 53.5536 143.491 52.249 140.281 52.249H137.236V52.2541ZM137.236 51.4229H140.431C143.626 51.4229 145.009 49.6348 145.009 45.721V45.1267C145.009 42.044 143.981 39.858 140.566 39.858H137.241V51.4229H137.236Z" fill="#171717"/>
<path d="M153.46 65.6475V54.566C153.46 54.3595 153.43 54.2336 153.376 54.0926L147.994 39.0269H148.998C150.88 44.4013 153.49 51.6295 153.925 53.1305H153.945C154.444 51.5338 157.15 44.3107 159.052 39.0269H160.005L154.449 54.0573C154.389 54.2235 154.379 54.3746 154.379 54.5509V65.6475H153.465H153.46Z" fill="#171717"/>
</g>
<defs>
<clipPath id="clip0_302_983">
<rect width="160" height="66" fill="white"/>
</clipPath>
</defs>
</svg>
